HIERARCHY
ROOT Hips
{
	OFFSET 0 0 0
	CHANNELS 6 Xposition Yposition Zposition Yrotation Xrotation Zrotation
	JOINT Spine
	{
		OFFSET -0 7.6537 -2.43962
		CHANNELS 3 Yrotation Xrotation Zrotation
		JOINT Spine1
		{
			OFFSET -0 6.97908 0
			CHANNELS 3 Yrotation Xrotation Zrotation
			JOINT Spine2
			{
				OFFSET -0 6.97908 0
				CHANNELS 3 Yrotation Xrotation Zrotation
				JOINT Spine3
				{
					OFFSET -0 6.97908 0
					CHANNELS 3 Yrotation Xrotation Zrotation
					JOINT Neck
					{
						OFFSET -0 12.4536 3.43962
						CHANNELS 3 Yrotation Xrotation Zrotation
						JOINT Head
						{
							OFFSET -0 9.56712 0
							CHANNELS 3 Yrotation Xrotation Zrotation
							End Site
							{
								OFFSET 0 15 0
							}
						}
					}
					JOINT LeftShoulder
					{
						OFFSET 1.59452 1.70466 3.18904
						CHANNELS 3 Yrotation Xrotation Zrotation
						JOINT LeftArm
						{
							OFFSET 16.7394 0 0
							CHANNELS 3 Yrotation Xrotation Zrotation
							JOINT LeftForeArm
							{
								OFFSET 22.0792 0 0
								CHANNELS 3 Yrotation Xrotation Zrotation
								JOINT LeftHand
								{
									OFFSET 21.9518 0 0
									CHANNELS 3 Yrotation Xrotation Zrotation
									JOINT LeftHandThumb1
									{
										OFFSET 4.21471 0 2.29637
										CHANNELS 3 Yrotation Xrotation Zrotation
										JOINT LeftHandThumb2
										{
											OFFSET 3 0 1
											CHANNELS 3 Yrotation Xrotation Zrotation
											JOINT LeftHandThumb3
											{
												OFFSET 2.1 0 0
												CHANNELS 3 Yrotation Xrotation Zrotation
												JOINT LeftHandThumb4
												{
													OFFSET 1.305 0 0
													CHANNELS 3 Yrotation Xrotation Zrotation
													End Site
													{
														OFFSET -0 0 0
													}
												}
											}
										}
									}
									JOINT LeftHandIndex1
									{
										OFFSET 7.90742 0 3.16134
										CHANNELS 3 Yrotation Xrotation Zrotation
										JOINT LeftHandIndex2
										{
											OFFSET 3.5 0 0
											CHANNELS 3 Yrotation Xrotation Zrotation
											JOINT LeftHandIndex3
											{
												OFFSET 2.45 0 0
												CHANNELS 3 Yrotation Xrotation Zrotation
												JOINT LeftHandIndex4
												{
													OFFSET 1.5225 0 0
													CHANNELS 3 Yrotation Xrotation Zrotation
													End Site
													{
														OFFSET -0 0 0
													}
												}
											}
										}
									}
									JOINT LeftHandMiddle1
									{
										OFFSET 7.88523 0 0.8816
										CHANNELS 3 Yrotation Xrotation Zrotation
										JOINT LeftHandMiddle2
										{
											OFFSET 4.6 0 0
											CHANNELS 3 Yrotation Xrotation Zrotation
											JOINT LeftHandMiddle3
											{
												OFFSET 3.22 0 0
												CHANNELS 3 Yrotation Xrotation Zrotation
												JOINT LeftHandMiddle4
												{
													OFFSET 2.001 0 0
													CHANNELS 3 Yrotation Xrotation Zrotation
													End Site
													{
														OFFSET -0 0 0
													}
												}
											}
										}
									}
									JOINT LeftHandRing1
									{
										OFFSET 7.56303 0 -1.39814
										CHANNELS 3 Yrotation Xrotation Zrotation
										JOINT LeftHandRing2
										{
											OFFSET 3.75 0 0
											CHANNELS 3 Yrotation Xrotation Zrotation
											JOINT LeftHandRing3
											{
												OFFSET 2.625 0 0
												CHANNELS 3 Yrotation Xrotation Zrotation
												JOINT LeftHandRing4
												{
													OFFSET 1.63125 0 0
													CHANNELS 3 Yrotation Xrotation Zrotation
													End Site
													{
														OFFSET -0 0 0
													}
												}
											}
										}
									}
									JOINT LeftHandPinky1
									{
										OFFSET 6.94084 0 -3.67789
										CHANNELS 3 Yrotation Xrotation Zrotation
										JOINT LeftHandPinky2
										{
											OFFSET 2.875 0 0
											CHANNELS 3 Yrotation Xrotation Zrotation
											JOINT LeftHandPinky3
											{
												OFFSET 2.0125 0 0
												CHANNELS 3 Yrotation Xrotation Zrotation
												JOINT LeftHandPinky4
												{
													OFFSET 1.25062 0 0
													CHANNELS 3 Yrotation Xrotation Zrotation
													End Site
													{
														OFFSET -0 0 0
													}
												}
											}
										}
									}
								}
							}
						}
					}
					JOINT RightShoulder
					{
						OFFSET -1.59452 1.70466 3.18904
						CHANNELS 3 Yrotation Xrotation Zrotation
						JOINT RightArm
						{
							OFFSET -16.7394 0 0
							CHANNELS 3 Yrotation Xrotation Zrotation
							JOINT RightForeArm
							{
								OFFSET -22.0792 0 0
								CHANNELS 3 Yrotation Xrotation Zrotation
								JOINT RightHand
								{
									OFFSET -21.9518 0 0
									CHANNELS 3 Yrotation Xrotation Zrotation
									JOINT RightHandThumb1
									{
										OFFSET -4.13818 0 2.6379
										CHANNELS 3 Yrotation Xrotation Zrotation
										JOINT RightHandThumb2
										{
											OFFSET -3 0 1
											CHANNELS 3 Yrotation Xrotation Zrotation
											JOINT RightHandThumb3
											{
												OFFSET -2.1 0 0
												CHANNELS 3 Yrotation Xrotation Zrotation
												JOINT RightHandThumb4
												{
													OFFSET -1.305 0 0
													CHANNELS 3 Yrotation Xrotation Zrotation
													End Site
													{
														OFFSET -0 0 0
													}
												}
											}
										}
									}
									JOINT RightHandIndex1
									{
										OFFSET -6.97845 0 3.45401
										CHANNELS 3 Yrotation Xrotation Zrotation
										JOINT RightHandIndex2
										{
											OFFSET -3.5 0 0
											CHANNELS 3 Yrotation Xrotation Zrotation
											JOINT RightHandIndex3
											{
												OFFSET -2.45 0 0
												CHANNELS 3 Yrotation Xrotation Zrotation
												JOINT RightHandIndex4
												{
													OFFSET -1.5225 0 0
													CHANNELS 3 Yrotation Xrotation Zrotation
													End Site
													{
														OFFSET -0 0 0
													}
												}
											}
										}
									}
									JOINT RightHandMiddle1
									{
										OFFSET -7.47728 0 1.18452
										CHANNELS 3 Yrotation Xrotation Zrotation
										JOINT RightHandMiddle2
										{
											OFFSET -4.6 0 0
											CHANNELS 3 Yrotation Xrotation Zrotation
											JOINT RightHandMiddle3
											{
												OFFSET -3.22 0 0
												CHANNELS 3 Yrotation Xrotation Zrotation
												JOINT RightHandMiddle4
												{
													OFFSET -2.001 0 0
													CHANNELS 3 Yrotation Xrotation Zrotation
													End Site
													{
														OFFSET -0 0 0
													}
												}
											}
										}
									}
									JOINT RightHandRing1
									{
										OFFSET -7.67611 0 -1.08498
										CHANNELS 3 Yrotation Xrotation Zrotation
										JOINT RightHandRing2
										{
											OFFSET -3.75 0 0
											CHANNELS 3 Yrotation Xrotation Zrotation
											JOINT RightHandRing3
											{
												OFFSET -2.625 0 0
												CHANNELS 3 Yrotation Xrotation Zrotation
												JOINT RightHandRing4
												{
													OFFSET -1.63125 0 0
													CHANNELS 3 Yrotation Xrotation Zrotation
													End Site
													{
														OFFSET -0 0 0
													}
												}
											}
										}
									}
									JOINT RightHandPinky1
									{
										OFFSET -7.57495 0 -3.35448
										CHANNELS 3 Yrotation Xrotation Zrotation
										JOINT RightHandPinky2
										{
											OFFSET -2.875 0 0
											CHANNELS 3 Yrotation Xrotation Zrotation
											JOINT RightHandPinky3
											{
												OFFSET -2.0125 0 0
												CHANNELS 3 Yrotation Xrotation Zrotation
												JOINT RightHandPinky4
												{
													OFFSET -1.25062 0 0
													CHANNELS 3 Yrotation Xrotation Zrotation
													End Site
													{
														OFFSET -0 0 0
													}
												}
											}
										}
									}
								}
							}
						}
					}
				}
			}
		}
	}
	JOINT LeftUpLeg
	{
		OFFSET 9.56712 -3.18904 3
		CHANNELS 3 Yrotation Xrotation Zrotation
		JOINT LeftLeg
		{
			OFFSET -0 -42.4756 2.23233
			CHANNELS 3 Yrotation Xrotation Zrotation
			JOINT LeftFoot
			{
				OFFSET -0 -34.3506 -2.23233
				CHANNELS 3 Yrotation Xrotation Zrotation
				JOINT LeftToeBase
				{
					OFFSET -0 -9.50731 8.10572
					CHANNELS 3 Yrotation Xrotation Zrotation
					End Site
					{
						OFFSET 0 0 5
					}
				}
			}
		}
	}
	JOINT RightUpLeg
	{
		OFFSET -9.56712 -3.18904 3
		CHANNELS 3 Yrotation Xrotation Zrotation
		JOINT RightLeg
		{
			OFFSET -0 -42.4756 2.23233
			CHANNELS 3 Yrotation Xrotation Zrotation
			JOINT RightFoot
			{
				OFFSET -0 -34.3506 -2.23233
				CHANNELS 3 Yrotation Xrotation Zrotation
				JOINT RightToeBase
				{
					OFFSET -0 -9.50731 8.10572
					CHANNELS 3 Yrotation Xrotation Zrotation
					End Site
					{
						OFFSET 0 0 5
					}
				}
			}
		}
	}
}
MOTION
Frames: 4
Frame Time: 0.0047619
0 90.263297 0 0 0 0 0 0 0 0 0 0 0 0 0 0 0 0 0 0 0 0 0 0 0 0 0 0 0 0 0 0 0 0 0 0 0 0 0 0 0 0 0 0 0 0 0 0 0 0 0 0 0 0 0 0 0 0 0 0 0 0 0 0 0 0 0 0 0 0 0 0 0 0 0 0 0 0 0 0 0 0 0 0 0 0 0 0 0 0 0 0 0 0 0 0 0 0 0 0 0 0 0 0 0 0 0 0 0 0 0 0 0 0 0 0 0 0 0 0 0 0 0 0 0 0 0 0 0 0 0 0 0 0 0 0 0 0 0 0 0 0 0 0 0 0 0 0 0 0 0 0 0 0 0 0 0 0 0 0 0 0 0 0 0 0 0 0 0 0 0 0 0 0 0 0 0 0 0 0 0 0 0 0 0 0 0 0 0 0 0 0
-51.966187 89.097467 40.795926 -0.959864 0.433396 -0.491071 1.813006 0.688953 -0.197553 1.715946 0.599606 -0.100884 1.450879 0.483251 -0.002069 1.359341 0.453423 0.058618 -1.912027 -6.384752 2.037309 -0.808084 3.261484 -0.875692 6.519708 -1.315319 9.769526 -3.533033 2.046435 2.363802 -7.239061 5.114762 -0.775167 13.951213 6.754118 -27.316276 21.283540 8.373571 -5.963338 24.436950 9.798057 -6.582050 -17.412448 1.602679 -4.527763 -0.000014 0.000038 -4.013273 -0.000014 0.000038 -4.013273 -0.000004 0.000031 -3.210617 0.000001 0.000016 -1.605305 -0.000001 0.000051 -2.633358 -0.000001 0.000051 -2.633358 -0.000014 0.000039 -2.106687 -0.000009 0.000019 -1.053342 -0.000019 0.000092 1.608524 -0.000019 0.000092 1.608524 -0.000027 0.000068 1.286815 0.000001 0.000039 0.643408 -0.000018 0.000067 -8.362607 -0.000018 0.000067 -8.362607 -0.000005 0.000054 -6.690088 0.000003 0.000026 -3.345044 -169.524595 -0.011677 -179.872620 -9.043573 -0.610898 -7.719638 6.044350 0.706334 -6.342252 9.953789 4.760335 4.499058 -13.080472 6.605863 31.722871 3.754717 11.466216 -15.623144 4.048764 13.258602 -17.952709 -65.612227 20.547701 8.909639 0.000000 -0.000000 -12.499993 0.000000 -0.000000 -12.499993 0.000003 -0.000001 -10.000003 -0.000003 0.000001 -5.000000 0.000009 0.000010 1.882607 0.000009 0.000010 1.882607 0.000010 0.000008 1.506086 0.000007 0.000005 0.753030 0.000006 0.000010 14.442100 0.000006 0.000010 14.442100 0.000004 0.000008 11.553675 0.000001 0.000008 5.776828 0.000006 0.000009 25.595043 0.000006 0.000009 25.595043 0.000002 0.000006 20.476045 -0.000000 0.000006 10.238006 21.283540 8.373571 -5.963338 4.079478 7.243577 10.069130 0.000000 0.533733 0.000000 -1.445285 1.616360 -7.919290 0.000000 -10.565260 0.000000 0.038237 3.061719 -5.853548 0.000000 7.578275 0.000000 -9.871619 -4.460608 6.214820 0.000000 -6.367996 0.000000
-52.053839 89.092889 40.812454 -0.978565 0.443318 -0.524249 1.800723 0.678733 -0.195788 1.704768 0.586025 -0.087928 1.458801 0.506201 0.014893 1.368707 0.451605 0.060320 -1.879244 -6.326834 1.972280 -0.796678 3.227942 -0.764067 6.520248 -1.270860 9.748413 -3.549498 2.025426 2.355520 -7.239191 5.075318 -0.761758 14.080340 6.824040 -27.290973 21.283540 8.373571 -5.963338 24.436950 9.798057 -6.582050 -17.412448 1.602679 -4.527763 -0.000014 0.000038 -4.013273 -0.000014 0.000038 -4.013273 -0.000004 0.000031 -3.210617 0.000001 0.000016 -1.605305 -0.000001 0.000051 -2.633358 -0.000001 0.000051 -2.633358 -0.000014 0.000039 -2.106687 -0.000009 0.000019 -1.053342 -0.000019 0.000092 1.608524 -0.000019 0.000092 1.608524 -0.000027 0.000068 1.286815 0.000001 0.000039 0.643408 -0.000018 0.000067 -8.362607 -0.000018 0.000067 -8.362607 -0.000005 0.000054 -6.690088 0.000003 0.000026 -3.345044 -169.524595 -0.011677 -179.872620 -9.078182 -0.580376 -7.715521 6.086108 0.738647 -6.385035 9.963168 4.828135 4.575859 -13.081764 6.502528 31.747462 3.754717 11.466216 -15.623144 4.048764 13.258602 -17.952709 -65.612227 20.547701 8.909639 0.000000 -0.000000 -12.499993 0.000000 -0.000000 -12.499993 0.000003 -0.000001 -10.000003 -0.000003 0.000001 -5.000000 0.000009 0.000010 1.882607 0.000009 0.000010 1.882607 0.000010 0.000008 1.506086 0.000007 0.000005 0.753030 0.000006 0.000010 14.442100 0.000006 0.000010 14.442100 0.000004 0.000008 11.553675 0.000001 0.000008 5.776828 0.000006 0.000009 25.595043 0.000006 0.000009 25.595043 0.000002 0.000006 20.476045 -0.000000 0.000006 10.238006 21.283540 8.373571 -5.963338 4.110790 7.225675 10.170345 0.000000 0.558245 0.000000 -1.440375 1.598173 -7.996823 0.000000 -10.487358 0.000000 0.085663 3.044867 -5.756502 0.000000 7.630156 0.000000 -9.896252 -4.541064 6.207816 0.000000 -6.362731 0.000000
-52.140051 89.089526 40.829926 -0.971825 0.446741 -0.547284 1.785540 0.682037 -0.189141 1.690666 0.591591 -0.092078 1.460396 0.509792 -0.003004 1.372414 0.444442 0.095724 -1.851332 -6.357876 2.013875 -0.785633 3.324557 -0.808531 6.545990 -1.241894 9.723185 -3.644465 2.029101 2.361224 -7.150957 5.086596 -0.759411 14.144566 6.820771 -27.276588 21.283540 8.373571 -5.963338 24.436950 9.798057 -6.582050 -17.412448 1.602679 -4.527763 -0.000014 0.000038 -4.013273 -0.000014 0.000038 -4.013273 -0.000004 0.000031 -3.210617 0.000001 0.000016 -1.605305 -0.000001 0.000051 -2.633358 -0.000001 0.000051 -2.633358 -0.000014 0.000039 -2.106687 -0.000009 0.000019 -1.053342 -0.000019 0.000092 1.608524 -0.000019 0.000092 1.608524 -0.000027 0.000068 1.286815 0.000001 0.000039 0.643408 -0.000018 0.000067 -8.362607 -0.000018 0.000067 -8.362607 -0.000005 0.000054 -6.690088 0.000003 0.000026 -3.345044 -169.524595 -0.011677 -179.872620 -9.104187 -0.615429 -7.717216 6.157432 0.701410 -6.366309 9.912859 4.883519 4.569605 -13.058040 6.558127 31.787561 3.754717 11.466216 -15.623144 4.048764 13.258602 -17.952709 -65.612227 20.547701 8.909639 0.000000 -0.000000 -12.499993 0.000000 -0.000000 -12.499993 0.000003 -0.000001 -10.000003 -0.000003 0.000001 -5.000000 0.000009 0.000010 1.882607 0.000009 0.000010 1.882607 0.000010 0.000008 1.506086 0.000007 0.000005 0.753030 0.000006 0.000010 14.442100 0.000006 0.000010 14.442100 0.000004 0.000008 11.553675 0.000001 0.000008 5.776828 0.000006 0.000009 25.595043 0.000006 0.000009 25.595043 0.000002 0.000006 20.476045 -0.000000 0.000006 10.238006 21.283540 8.373571 -5.963338 4.087498 7.220148 10.250195 0.000000 0.572595 0.000000 -1.431985 1.649396 -8.039901 0.000000 -10.521798 0.000000 0.115795 3.047598 -5.670602 0.000000 7.658934 0.000000 -9.943190 -4.571896 6.207314 0.000000 -6.342589 0.000000
